<mxfile host="app.diagrams.net" agent="Mozilla/5.0 (Macintosh; Intel Mac OS X 10_15_7) AppleWebKit/537.36 (KHTML, like Gecko) Chrome/129.0.0.0 Safari/537.36" version="24.7.17">
  <diagram name="第 1 页" id="4XwG_0cKbE8WyVuh-_PE">
    <mxGraphModel dx="1242" dy="819" grid="1" gridSize="10" guides="1" tooltips="1" connect="1" arrows="1" fold="1" page="1" pageScale="1" pageWidth="827" pageHeight="1169" math="0" shadow="0">
      <root>
        <mxCell id="0" />
        <mxCell id="1" parent="0" />
        <mxCell id="uOtYyvB3GLi2glIC1Y_o-1" value="" style="rounded=0;whiteSpace=wrap;html=1;" vertex="1" parent="1">
          <mxGeometry x="60" y="90" width="720" height="240" as="geometry" />
        </mxCell>
        <mxCell id="uOtYyvB3GLi2glIC1Y_o-2" value="Eureka" style="text;strokeColor=none;fillColor=none;html=1;fontSize=24;fontStyle=1;verticalAlign=middle;align=center;" vertex="1" parent="1">
          <mxGeometry x="60" y="70" width="100" height="40" as="geometry" />
        </mxCell>
        <mxCell id="uOtYyvB3GLi2glIC1Y_o-6" value="" style="rounded=0;whiteSpace=wrap;html=1;" vertex="1" parent="1">
          <mxGeometry x="70" y="220" width="700" height="100" as="geometry" />
        </mxCell>
        <mxCell id="uOtYyvB3GLi2glIC1Y_o-20" value="" style="endArrow=none;html=1;rounded=0;entryX=1;entryY=0.5;entryDx=0;entryDy=0;exitX=0;exitY=0.5;exitDx=0;exitDy=0;" edge="1" parent="1" source="uOtYyvB3GLi2glIC1Y_o-6" target="uOtYyvB3GLi2glIC1Y_o-6">
          <mxGeometry width="50" height="50" relative="1" as="geometry">
            <mxPoint x="380" y="450" as="sourcePoint" />
            <mxPoint x="430" y="400" as="targetPoint" />
          </mxGeometry>
        </mxCell>
        <mxCell id="uOtYyvB3GLi2glIC1Y_o-21" value="auth" style="text;html=1;align=center;verticalAlign=middle;whiteSpace=wrap;rounded=0;" vertex="1" parent="1">
          <mxGeometry x="390" y="280" width="60" height="30" as="geometry" />
        </mxCell>
        <mxCell id="uOtYyvB3GLi2glIC1Y_o-24" value="" style="endArrow=none;html=1;rounded=0;entryX=0.446;entryY=0;entryDx=0;entryDy=0;entryPerimeter=0;" edge="1" parent="1">
          <mxGeometry width="50" height="50" relative="1" as="geometry">
            <mxPoint x="381" y="270" as="sourcePoint" />
            <mxPoint x="381.1199999999999" y="223" as="targetPoint" />
            <Array as="points">
              <mxPoint x="381" y="253" />
            </Array>
          </mxGeometry>
        </mxCell>
        <mxCell id="uOtYyvB3GLi2glIC1Y_o-27" value="web-route" style="text;html=1;align=center;verticalAlign=middle;whiteSpace=wrap;rounded=0;" vertex="1" parent="1">
          <mxGeometry x="195" y="231" width="60" height="30" as="geometry" />
        </mxCell>
        <mxCell id="uOtYyvB3GLi2glIC1Y_o-30" value="" style="endArrow=classic;html=1;rounded=0;" edge="1" parent="1">
          <mxGeometry width="50" height="50" relative="1" as="geometry">
            <mxPoint x="570" y="219" as="sourcePoint" />
            <mxPoint x="570" y="90" as="targetPoint" />
          </mxGeometry>
        </mxCell>
        <mxCell id="uOtYyvB3GLi2glIC1Y_o-31" value="port" style="text;html=1;align=center;verticalAlign=middle;whiteSpace=wrap;rounded=0;" vertex="1" parent="1">
          <mxGeometry x="390" y="303" width="60" height="30" as="geometry" />
        </mxCell>
        <mxCell id="uOtYyvB3GLi2glIC1Y_o-39" value="" style="rounded=0;whiteSpace=wrap;html=1;" vertex="1" parent="1">
          <mxGeometry x="70" y="119" width="310" height="79" as="geometry" />
        </mxCell>
        <mxCell id="uOtYyvB3GLi2glIC1Y_o-32" value="addr:port" style="text;html=1;align=center;verticalAlign=middle;whiteSpace=wrap;rounded=0;" vertex="1" parent="1">
          <mxGeometry x="540" y="74" width="60" height="30" as="geometry" />
        </mxCell>
        <mxCell id="uOtYyvB3GLi2glIC1Y_o-36" value="starter-route" style="text;html=1;align=center;verticalAlign=middle;whiteSpace=wrap;rounded=0;" vertex="1" parent="1">
          <mxGeometry x="530" y="231" width="80" height="30" as="geometry" />
        </mxCell>
        <mxCell id="uOtYyvB3GLi2glIC1Y_o-38" value="gateway" style="text;strokeColor=none;fillColor=none;html=1;fontSize=24;fontStyle=1;verticalAlign=middle;align=center;" vertex="1" parent="1">
          <mxGeometry x="80" y="198" width="100" height="40" as="geometry" />
        </mxCell>
        <mxCell id="uOtYyvB3GLi2glIC1Y_o-40" value="" style="rounded=0;whiteSpace=wrap;html=1;" vertex="1" parent="1">
          <mxGeometry x="85" y="128.5" width="130" height="60" as="geometry" />
        </mxCell>
        <mxCell id="uOtYyvB3GLi2glIC1Y_o-41" value="" style="rounded=0;whiteSpace=wrap;html=1;" vertex="1" parent="1">
          <mxGeometry x="234" y="128.5" width="130" height="60" as="geometry" />
        </mxCell>
        <mxCell id="uOtYyvB3GLi2glIC1Y_o-43" value="rest" style="text;html=1;align=center;verticalAlign=middle;whiteSpace=wrap;rounded=0;" vertex="1" parent="1">
          <mxGeometry x="120" y="143.5" width="60" height="30" as="geometry" />
        </mxCell>
        <mxCell id="uOtYyvB3GLi2glIC1Y_o-44" value="other" style="text;html=1;align=center;verticalAlign=middle;whiteSpace=wrap;rounded=0;" vertex="1" parent="1">
          <mxGeometry x="269" y="143.5" width="60" height="30" as="geometry" />
        </mxCell>
        <mxCell id="uOtYyvB3GLi2glIC1Y_o-45" value="services" style="text;strokeColor=none;fillColor=none;html=1;fontSize=24;fontStyle=1;verticalAlign=middle;align=center;" vertex="1" parent="1">
          <mxGeometry x="78" y="97" width="100" height="40" as="geometry" />
        </mxCell>
        <mxCell id="uOtYyvB3GLi2glIC1Y_o-46" value="" style="endArrow=classic;html=1;rounded=0;entryX=0.5;entryY=1;entryDx=0;entryDy=0;exitX=0.221;exitY=-0.005;exitDx=0;exitDy=0;exitPerimeter=0;" edge="1" parent="1" source="uOtYyvB3GLi2glIC1Y_o-6" target="uOtYyvB3GLi2glIC1Y_o-39">
          <mxGeometry width="50" height="50" relative="1" as="geometry">
            <mxPoint x="430" y="440" as="sourcePoint" />
            <mxPoint x="480" y="390" as="targetPoint" />
          </mxGeometry>
        </mxCell>
        <mxCell id="uOtYyvB3GLi2glIC1Y_o-48" value="" style="whiteSpace=wrap;html=1;" vertex="1" parent="1">
          <mxGeometry x="270" y="360" width="120" height="60" as="geometry" />
        </mxCell>
      </root>
    </mxGraphModel>
  </diagram>
</mxfile>
